<mxfile host="app.diagrams.net" modified="2023-07-29T18:58:00.276Z" agent="Mozilla/5.0 (Windows NT 10.0; Win64; x64) AppleWebKit/537.36 (KHTML, like Gecko) Chrome/115.0.0.0 Safari/537.36 Edg/115.0.1901.188" etag="zcWQO-eMjH0lI5Pr29hZ" version="21.6.6" type="github">
  <diagram name="Page-1" id="47tou_XwfxyyFyOwHj1d">
    <mxGraphModel dx="1221" dy="620" grid="1" gridSize="10" guides="1" tooltips="1" connect="1" arrows="1" fold="1" page="1" pageScale="1" pageWidth="1100" pageHeight="850" math="0" shadow="0">
      <root>
        <mxCell id="0" />
        <mxCell id="1" parent="0" />
        <mxCell id="feKdaidPwsYe385zpt9q-1" value="" style="sketch=0;pointerEvents=1;shadow=0;dashed=0;html=1;strokeColor=none;fillColor=#505050;labelPosition=center;verticalLabelPosition=bottom;verticalAlign=top;outlineConnect=0;align=center;shape=mxgraph.office.devices.mac_client;" vertex="1" parent="1">
          <mxGeometry x="40" y="265" width="200" height="150" as="geometry" />
        </mxCell>
        <mxCell id="feKdaidPwsYe385zpt9q-2" value="" style="endArrow=classic;startArrow=classic;html=1;rounded=0;" edge="1" parent="1">
          <mxGeometry width="50" height="50" relative="1" as="geometry">
            <mxPoint x="140" y="275" as="sourcePoint" />
            <mxPoint x="140" y="105" as="targetPoint" />
          </mxGeometry>
        </mxCell>
        <mxCell id="feKdaidPwsYe385zpt9q-3" value="" style="endArrow=classic;startArrow=classic;html=1;rounded=0;" edge="1" parent="1">
          <mxGeometry width="50" height="50" relative="1" as="geometry">
            <mxPoint x="140" y="105" as="sourcePoint" />
            <mxPoint x="350" y="105" as="targetPoint" />
          </mxGeometry>
        </mxCell>
        <mxCell id="feKdaidPwsYe385zpt9q-4" value="" style="sketch=0;pointerEvents=1;shadow=0;dashed=0;html=1;strokeColor=none;fillColor=#505050;labelPosition=center;verticalLabelPosition=bottom;outlineConnect=0;verticalAlign=top;align=center;shape=mxgraph.office.clouds.cloud;" vertex="1" parent="1">
          <mxGeometry x="350" y="65" width="94" height="55" as="geometry" />
        </mxCell>
        <mxCell id="feKdaidPwsYe385zpt9q-5" value="" style="endArrow=classic;startArrow=classic;html=1;rounded=0;" edge="1" parent="1">
          <mxGeometry width="50" height="50" relative="1" as="geometry">
            <mxPoint x="444" y="105" as="sourcePoint" />
            <mxPoint x="570" y="105" as="targetPoint" />
          </mxGeometry>
        </mxCell>
        <mxCell id="feKdaidPwsYe385zpt9q-6" style="edgeStyle=orthogonalEdgeStyle;rounded=0;orthogonalLoop=1;jettySize=auto;html=1;" edge="1" parent="1" source="feKdaidPwsYe385zpt9q-54">
          <mxGeometry relative="1" as="geometry">
            <mxPoint x="425" y="278" as="targetPoint" />
            <mxPoint x="570" y="213" as="sourcePoint" />
            <Array as="points" />
          </mxGeometry>
        </mxCell>
        <mxCell id="feKdaidPwsYe385zpt9q-8" value="" style="whiteSpace=wrap;html=1;aspect=fixed;" vertex="1" parent="1">
          <mxGeometry x="290" y="315" width="260" height="260" as="geometry" />
        </mxCell>
        <mxCell id="feKdaidPwsYe385zpt9q-9" value="" style="whiteSpace=wrap;html=1;aspect=fixed;" vertex="1" parent="1">
          <mxGeometry x="580" y="315" width="260" height="260" as="geometry" />
        </mxCell>
        <mxCell id="feKdaidPwsYe385zpt9q-13" value="" style="sketch=0;pointerEvents=1;shadow=0;dashed=0;html=1;strokeColor=none;labelPosition=center;verticalLabelPosition=bottom;verticalAlign=top;outlineConnect=0;align=center;shape=mxgraph.office.servers.server_generic;fillColor=#7FBA42;" vertex="1" parent="1">
          <mxGeometry x="670" y="335" width="57" height="105" as="geometry" />
        </mxCell>
        <mxCell id="feKdaidPwsYe385zpt9q-18" value="&lt;font style=&quot;font-size: 22px;&quot;&gt;&lt;b&gt;Internet&lt;/b&gt;&lt;/font&gt;" style="text;html=1;align=center;verticalAlign=middle;resizable=0;points=[];autosize=1;strokeColor=none;fillColor=none;" vertex="1" parent="1">
          <mxGeometry x="347" y="130" width="100" height="40" as="geometry" />
        </mxCell>
        <mxCell id="feKdaidPwsYe385zpt9q-19" value="&lt;font style=&quot;font-size: 22px;&quot;&gt;https Request&lt;br&gt;www.foobar.com&lt;br&gt;&lt;/font&gt;" style="text;html=1;align=center;verticalAlign=middle;resizable=0;points=[];autosize=1;strokeColor=none;fillColor=none;" vertex="1" parent="1">
          <mxGeometry x="50" y="40" width="180" height="70" as="geometry" />
        </mxCell>
        <mxCell id="feKdaidPwsYe385zpt9q-20" value="&lt;font style=&quot;font-size: 22px;&quot;&gt;&lt;b style=&quot;font-size: 14px;&quot;&gt;Web Server&lt;/b&gt;&lt;/font&gt;" style="text;html=1;align=center;verticalAlign=middle;resizable=0;points=[];autosize=1;strokeColor=none;fillColor=none;" vertex="1" parent="1">
          <mxGeometry x="357" y="415" width="100" height="40" as="geometry" />
        </mxCell>
        <mxCell id="feKdaidPwsYe385zpt9q-22" value="&lt;font style=&quot;font-size: 22px;&quot;&gt;&lt;b style=&quot;font-size: 14px;&quot;&gt;Code Base&lt;/b&gt;&lt;/font&gt;" style="text;html=1;align=center;verticalAlign=middle;resizable=0;points=[];autosize=1;strokeColor=none;fillColor=none;" vertex="1" parent="1">
          <mxGeometry x="405.49" y="542.41" width="100" height="40" as="geometry" />
        </mxCell>
        <mxCell id="feKdaidPwsYe385zpt9q-24" value="&lt;font style=&quot;font-size: 22px;&quot;&gt;&lt;b style=&quot;font-size: 14px;&quot;&gt;Code Base&lt;/b&gt;&lt;/font&gt;" style="text;html=1;align=center;verticalAlign=middle;resizable=0;points=[];autosize=1;strokeColor=none;fillColor=none;" vertex="1" parent="1">
          <mxGeometry x="685" y="542.41" width="100" height="40" as="geometry" />
        </mxCell>
        <mxCell id="feKdaidPwsYe385zpt9q-27" value="&lt;font style=&quot;font-size: 22px;&quot;&gt;&lt;b style=&quot;font-size: 14px;&quot;&gt;App Server&lt;/b&gt;&lt;/font&gt;" style="text;html=1;align=center;verticalAlign=middle;resizable=0;points=[];autosize=1;strokeColor=none;fillColor=none;" vertex="1" parent="1">
          <mxGeometry x="660" y="440" width="100" height="40" as="geometry" />
        </mxCell>
        <mxCell id="feKdaidPwsYe385zpt9q-28" value="" style="endArrow=classic;startArrow=classic;html=1;rounded=0;exitX=0.577;exitY=0.712;exitDx=0;exitDy=0;exitPerimeter=0;" edge="1" parent="1" source="feKdaidPwsYe385zpt9q-8" target="feKdaidPwsYe385zpt9q-20">
          <mxGeometry width="50" height="50" relative="1" as="geometry">
            <mxPoint x="280" y="500" as="sourcePoint" />
            <mxPoint x="328.2000000000001" y="422" as="targetPoint" />
          </mxGeometry>
        </mxCell>
        <mxCell id="feKdaidPwsYe385zpt9q-34" value="&lt;font style=&quot;font-size: 22px;&quot;&gt;&lt;b&gt;Client&lt;/b&gt;&lt;/font&gt;" style="text;html=1;align=center;verticalAlign=middle;resizable=0;points=[];autosize=1;strokeColor=none;fillColor=none;" vertex="1" parent="1">
          <mxGeometry x="80" y="425" width="80" height="40" as="geometry" />
        </mxCell>
        <mxCell id="feKdaidPwsYe385zpt9q-36" value="&lt;font style=&quot;font-size: 22px;&quot;&gt;&lt;b style=&quot;font-size: 14px;&quot;&gt;8.8.8.8&lt;/b&gt;&lt;/font&gt;" style="text;html=1;align=center;verticalAlign=middle;resizable=0;points=[];autosize=1;strokeColor=none;fillColor=none;" vertex="1" parent="1">
          <mxGeometry x="435.49" y="310" width="70" height="40" as="geometry" />
        </mxCell>
        <mxCell id="feKdaidPwsYe385zpt9q-37" value="&lt;font style=&quot;font-size: 22px;&quot;&gt;&lt;b&gt;Server 1&lt;/b&gt;&lt;/font&gt;" style="text;html=1;align=center;verticalAlign=middle;resizable=0;points=[];autosize=1;strokeColor=none;fillColor=none;" vertex="1" parent="1">
          <mxGeometry x="447" y="278" width="110" height="40" as="geometry" />
        </mxCell>
        <mxCell id="feKdaidPwsYe385zpt9q-38" value="&lt;font style=&quot;font-size: 22px;&quot;&gt;https Response&lt;br&gt;&lt;/font&gt;" style="text;html=1;align=center;verticalAlign=middle;resizable=0;points=[];autosize=1;strokeColor=none;fillColor=none;" vertex="1" parent="1">
          <mxGeometry x="815" y="140" width="180" height="40" as="geometry" />
        </mxCell>
        <mxCell id="feKdaidPwsYe385zpt9q-39" value="" style="endArrow=classic;html=1;rounded=0;" edge="1" parent="1">
          <mxGeometry width="50" height="50" relative="1" as="geometry">
            <mxPoint x="824.5" y="160" as="sourcePoint" />
            <mxPoint x="670" y="160" as="targetPoint" />
          </mxGeometry>
        </mxCell>
        <mxCell id="feKdaidPwsYe385zpt9q-40" value="" style="endArrow=classic;html=1;rounded=0;" edge="1" parent="1">
          <mxGeometry width="50" height="50" relative="1" as="geometry">
            <mxPoint x="210" y="75" as="sourcePoint" />
            <mxPoint x="270" y="75" as="targetPoint" />
          </mxGeometry>
        </mxCell>
        <mxCell id="feKdaidPwsYe385zpt9q-41" value="" style="edgeStyle=orthogonalEdgeStyle;rounded=0;orthogonalLoop=1;jettySize=auto;html=1;" edge="1" parent="1">
          <mxGeometry relative="1" as="geometry">
            <mxPoint x="575" y="156" as="targetPoint" />
            <mxPoint x="570" y="105" as="sourcePoint" />
            <Array as="points" />
          </mxGeometry>
        </mxCell>
        <mxCell id="feKdaidPwsYe385zpt9q-44" value="" style="whiteSpace=wrap;html=1;aspect=fixed;" vertex="1" parent="1">
          <mxGeometry x="860" y="318" width="260" height="260" as="geometry" />
        </mxCell>
        <mxCell id="feKdaidPwsYe385zpt9q-47" value="&lt;font style=&quot;font-size: 22px;&quot;&gt;&lt;b style=&quot;font-size: 14px;&quot;&gt;Database(MySQL)&lt;/b&gt;&lt;/font&gt;" style="text;html=1;align=center;verticalAlign=middle;resizable=0;points=[];autosize=1;strokeColor=none;fillColor=none;" vertex="1" parent="1">
          <mxGeometry x="901.5" y="455" width="140" height="40" as="geometry" />
        </mxCell>
        <mxCell id="feKdaidPwsYe385zpt9q-49" value="" style="fontColor=#0066CC;verticalAlign=top;verticalLabelPosition=bottom;labelPosition=center;align=center;html=1;outlineConnect=0;fillColor=#CCCCCC;strokeColor=#6881B3;gradientColor=none;gradientDirection=north;strokeWidth=2;shape=mxgraph.networks.firewall;" vertex="1" parent="1">
          <mxGeometry x="397" y="275" width="50" height="40" as="geometry" />
        </mxCell>
        <mxCell id="feKdaidPwsYe385zpt9q-50" value="" style="fontColor=#0066CC;verticalAlign=top;verticalLabelPosition=bottom;labelPosition=center;align=center;html=1;outlineConnect=0;fillColor=#CCCCCC;strokeColor=#6881B3;gradientColor=none;gradientDirection=north;strokeWidth=2;shape=mxgraph.networks.firewall;" vertex="1" parent="1">
          <mxGeometry x="685" y="275" width="50" height="40" as="geometry" />
        </mxCell>
        <mxCell id="feKdaidPwsYe385zpt9q-51" value="" style="fontColor=#0066CC;verticalAlign=top;verticalLabelPosition=bottom;labelPosition=center;align=center;html=1;outlineConnect=0;fillColor=#CCCCCC;strokeColor=#6881B3;gradientColor=none;gradientDirection=north;strokeWidth=2;shape=mxgraph.networks.firewall;" vertex="1" parent="1">
          <mxGeometry x="980" y="275" width="50" height="40" as="geometry" />
        </mxCell>
        <mxCell id="feKdaidPwsYe385zpt9q-52" value="" style="fontColor=#0066CC;verticalAlign=top;verticalLabelPosition=bottom;labelPosition=center;align=center;html=1;outlineConnect=0;fillColor=#CCCCCC;strokeColor=#6881B3;gradientColor=none;gradientDirection=north;strokeWidth=2;shape=mxgraph.networks.web_server;" vertex="1" parent="1">
          <mxGeometry x="357" y="330" width="83" height="80" as="geometry" />
        </mxCell>
        <mxCell id="feKdaidPwsYe385zpt9q-53" value="" style="fontColor=#0066CC;verticalAlign=top;verticalLabelPosition=bottom;labelPosition=center;align=center;html=1;outlineConnect=0;fillColor=#CCCCCC;strokeColor=#6881B3;gradientColor=none;gradientDirection=north;strokeWidth=2;shape=mxgraph.networks.server_storage;" vertex="1" parent="1">
          <mxGeometry x="930" y="335" width="105" height="105" as="geometry" />
        </mxCell>
        <mxCell id="feKdaidPwsYe385zpt9q-54" value="" style="fontColor=#0066CC;verticalAlign=top;verticalLabelPosition=bottom;labelPosition=center;align=center;html=1;outlineConnect=0;fillColor=#CCCCCC;strokeColor=#6881B3;gradientColor=none;gradientDirection=north;strokeWidth=2;shape=mxgraph.networks.load_balancer;rotation=-180;" vertex="1" parent="1">
          <mxGeometry x="540" y="170" width="100" height="30" as="geometry" />
        </mxCell>
        <mxCell id="feKdaidPwsYe385zpt9q-56" value="&lt;font style=&quot;font-size: 22px;&quot;&gt;&lt;b&gt;SSL&lt;/b&gt;&lt;/font&gt;" style="text;html=1;align=center;verticalAlign=middle;resizable=0;points=[];autosize=1;strokeColor=none;fillColor=none;" vertex="1" parent="1">
          <mxGeometry x="250.61" y="100" width="70" height="40" as="geometry" />
        </mxCell>
        <mxCell id="feKdaidPwsYe385zpt9q-57" value="" style="sketch=0;outlineConnect=0;fontColor=#232F3E;gradientColor=none;fillColor=#232F3D;strokeColor=none;dashed=0;verticalLabelPosition=bottom;verticalAlign=top;align=center;html=1;fontSize=12;fontStyle=0;aspect=fixed;pointerEvents=1;shape=mxgraph.aws4.ssl_padlock;" vertex="1" parent="1">
          <mxGeometry x="270.21" y="70" width="30.79" height="30" as="geometry" />
        </mxCell>
        <mxCell id="feKdaidPwsYe385zpt9q-58" value="" style="strokeWidth=2;html=1;shape=mxgraph.flowchart.annotation_1;align=left;pointerEvents=1;rotation=-90;" vertex="1" parent="1">
          <mxGeometry x="485" y="470" width="50" height="265" as="geometry" />
        </mxCell>
        <mxCell id="feKdaidPwsYe385zpt9q-59" value="" style="strokeWidth=2;html=1;shape=mxgraph.flowchart.annotation_1;align=left;pointerEvents=1;rotation=-90;" vertex="1" parent="1">
          <mxGeometry x="880" y="470" width="50" height="265" as="geometry" />
        </mxCell>
        <mxCell id="feKdaidPwsYe385zpt9q-60" value="&lt;font style=&quot;font-size: 22px;&quot;&gt;&lt;b&gt;Server 2&lt;/b&gt;&lt;/font&gt;" style="text;html=1;align=center;verticalAlign=middle;resizable=0;points=[];autosize=1;strokeColor=none;fillColor=none;" vertex="1" parent="1">
          <mxGeometry x="735" y="275" width="110" height="40" as="geometry" />
        </mxCell>
        <mxCell id="feKdaidPwsYe385zpt9q-61" value="&lt;font style=&quot;font-size: 22px;&quot;&gt;&lt;b&gt;Server 2&lt;/b&gt;&lt;/font&gt;" style="text;html=1;align=center;verticalAlign=middle;resizable=0;points=[];autosize=1;strokeColor=none;fillColor=none;" vertex="1" parent="1">
          <mxGeometry x="1035" y="278" width="110" height="40" as="geometry" />
        </mxCell>
        <mxCell id="feKdaidPwsYe385zpt9q-62" value="" style="sketch=0;outlineConnect=0;fontColor=#232F3E;gradientColor=none;fillColor=#232F3D;strokeColor=none;dashed=0;verticalLabelPosition=bottom;verticalAlign=top;align=center;html=1;fontSize=12;fontStyle=0;aspect=fixed;pointerEvents=1;shape=mxgraph.aws4.source_code;" vertex="1" parent="1">
          <mxGeometry x="440" y="500" width="30.99" height="42.41" as="geometry" />
        </mxCell>
        <mxCell id="feKdaidPwsYe385zpt9q-63" value="" style="sketch=0;outlineConnect=0;fontColor=#232F3E;gradientColor=none;fillColor=#232F3D;strokeColor=none;dashed=0;verticalLabelPosition=bottom;verticalAlign=top;align=center;html=1;fontSize=12;fontStyle=0;aspect=fixed;pointerEvents=1;shape=mxgraph.aws4.source_code;" vertex="1" parent="1">
          <mxGeometry x="710" y="510" width="30.99" height="42.41" as="geometry" />
        </mxCell>
        <mxCell id="feKdaidPwsYe385zpt9q-64" value="" style="endArrow=classic;startArrow=classic;html=1;rounded=0;exitX=0.577;exitY=0.712;exitDx=0;exitDy=0;exitPerimeter=0;" edge="1" parent="1">
          <mxGeometry width="50" height="50" relative="1" as="geometry">
            <mxPoint x="710" y="525" as="sourcePoint" />
            <mxPoint x="687" y="480" as="targetPoint" />
          </mxGeometry>
        </mxCell>
        <mxCell id="feKdaidPwsYe385zpt9q-66" value="" style="sketch=0;pointerEvents=1;shadow=0;dashed=0;html=1;strokeColor=none;fillColor=#434445;aspect=fixed;labelPosition=center;verticalLabelPosition=bottom;verticalAlign=top;align=center;outlineConnect=0;shape=mxgraph.vvd.nsx_dashboard;" vertex="1" parent="1">
          <mxGeometry x="320.61" y="507.95" width="50" height="46.5" as="geometry" />
        </mxCell>
        <mxCell id="feKdaidPwsYe385zpt9q-67" value="" style="sketch=0;pointerEvents=1;shadow=0;dashed=0;html=1;strokeColor=none;fillColor=#434445;aspect=fixed;labelPosition=center;verticalLabelPosition=bottom;verticalAlign=top;align=center;outlineConnect=0;shape=mxgraph.vvd.nsx_dashboard;" vertex="1" parent="1">
          <mxGeometry x="630" y="510.00000000000006" width="50" height="46.5" as="geometry" />
        </mxCell>
        <mxCell id="feKdaidPwsYe385zpt9q-68" value="" style="sketch=0;pointerEvents=1;shadow=0;dashed=0;html=1;strokeColor=none;fillColor=#434445;aspect=fixed;labelPosition=center;verticalLabelPosition=bottom;verticalAlign=top;align=center;outlineConnect=0;shape=mxgraph.vvd.nsx_dashboard;" vertex="1" parent="1">
          <mxGeometry x="920" y="520" width="50" height="46.5" as="geometry" />
        </mxCell>
      </root>
    </mxGraphModel>
  </diagram>
</mxfile>
